<svg xmlns="http://www.w3.org/2000/svg" viewBox="0 0 32 32">
  <rect width="32" height="32" rx="7" fill="#F5F9FC"/>
  <!-- Low-carbon skyline: efficient blocks with rooftop solar, a leaf, clean water. -->
  <g fill="#2563EB">
    <rect x="17" y="12" width="4" height="10" rx="1"/>
    <rect x="23" y="9" width="4" height="13" rx="1"/>
  </g>
  <path d="M22.6 8.6h4.8V7h-4.8z" fill="#1D4ED8"/>
  <path d="M13 8c-4 .6-6.5 3-6.5 6.5 0 2 1 3.6 2.6 4.6C10.6 14.6 13 12 16 10.4c-2.6 2-4.2 4.6-5.2 8.2 3.2.6 5.8-.6 7.2-3.2 1.5-3 1-6.6-.5-8.6C16 6 14.5 6.6 13 8Z" fill="#65A30D"/>
  <path d="M5 25c3-2 6-2 9 0s6 2 9 0 6-2 9 0" fill="none" stroke="#0D9488" stroke-width="2.4" stroke-linecap="round"/>
</svg>
